<?xml version="1.0" encoding="UTF-8"?><svg xmlns="http://www.w3.org/2000/svg" xmlns:xlink="http://www.w3.org/1999/xlink" height="449.2" preserveAspectRatio="xMidYMid meet" version="1.0" viewBox="-12.3 -11.5 431.5 449.2" width="431.5" zoomAndPan="magnify"><defs><clipPath id="a"><path d="M 3 10 L 413.230469 10 L 413.230469 352 L 3 352 Z M 3 10"/></clipPath><clipPath id="b"><path d="M 0 11 L 413.230469 11 L 413.230469 437.648438 L 0 437.648438 Z M 0 11"/></clipPath></defs><g><g id="change1_1"><path d="M 261.9375 397.988281 C 163.179688 423.289062 14.863281 359.433594 1.492188 251.394531 C -12.328125 139.734375 71.597656 20.355469 183.777344 2.441406 C 271.394531 -11.546875 382.125 34.6875 399.296875 138.316406 C 419.136719 258.042969 375.789062 368.820312 261.9375 397.988281" fill="#868acd"/></g><g id="change2_1"><path d="M 208.308594 83.585938 C 208.390625 83.5625 208.472656 83.539062 208.554688 83.511719 L 208.613281 83.230469 C 209.585938 78.390625 209.839844 73.433594 209.367188 68.519531 C 209.367188 68.519531 209.398438 68.523438 209.449219 68.523438 C 209.417969 67.113281 209.484375 65.746094 209.714844 64.390625 C 214.957031 65.320312 217.738281 65.328125 220.679688 61.339844 C 223.761719 57.160156 224.519531 45.222656 224.007812 38.628906 C 223.609375 33.480469 222.90625 29.300781 220.9375 26.1875 C 220.492188 26.328125 220.035156 26.429688 219.578125 26.484375 C 217.660156 26.71875 215.769531 26.449219 213.878906 26.054688 C 214.378906 28.65625 213.121094 31.386719 211.125 33.128906 C 209.125 34.871094 206.492188 35.734375 203.867188 36.09375 C 202.027344 36.347656 199.851562 36.546875 198.902344 38.148438 C 197.9375 39.769531 198.835938 41.910156 198.273438 43.714844 C 197.832031 45.140625 196.53125 46.140625 195.179688 46.777344 C 194.394531 47.144531 193.5625 47.414062 192.710938 47.597656 C 193.429688 52.433594 193.386719 57.355469 192.402344 62.171875 C 192.128906 63.515625 191.816406 64.84375 191.46875 66.121094 C 192.308594 66.816406 200.855469 73.859375 203.390625 75.253906 C 205.671875 76.507812 207.753906 82.019531 208.308594 83.585938 Z M 287.539062 87.53125 C 287.539062 87.53125 290.605469 85.511719 289.9375 83.378906 C 289.269531 81.246094 271.269531 83.863281 271.269531 83.863281 C 273.804688 83.152344 276.472656 79.113281 274.472656 79.246094 C 272.472656 79.378906 267.671875 81.246094 263.136719 81.832031 C 258.605469 82.417969 256.921875 88.953125 256.921875 88.953125 L 248.679688 108.695312 L 261.304688 112.515625 L 264.226562 95.097656 C 267.425781 92.695312 278.367188 92.269531 283.035156 90.695312 C 287.699219 89.117188 287.539062 87.53125 287.539062 87.53125 Z M 220.503906 119.714844 C 218.773438 118.914062 207.152344 126.8125 207.152344 126.8125 L 186.285156 131.53125 L 190.488281 144.039062 L 210.148438 134.496094 C 211.824219 133.683594 215.835938 134.8125 217.539062 134.511719 C 219.238281 134.214844 222.335938 135.214844 225.195312 134.046875 C 228.050781 132.875 228.335938 130.113281 228.335938 130.113281 C 228.335938 130.113281 230.636719 130.914062 230.859375 130.113281 C 231.085938 129.3125 231.136719 128.214844 229.914062 126.8125 C 228.691406 125.414062 222.238281 120.511719 220.503906 119.714844 Z M 292.058594 161.679688 L 316.785156 161.679688 L 316.785156 160.679688 L 292.058594 160.679688 Z M 292.058594 156.230469 L 350.785156 156.230469 L 350.785156 155.230469 L 292.058594 155.230469 Z M 292.058594 150.78125 L 341.511719 150.78125 L 341.511719 149.78125 L 292.058594 149.78125 Z M 292.058594 145.328125 L 357.925781 145.328125 L 357.925781 144.328125 L 292.058594 144.328125 Z M 292.058594 138.878906 L 292.058594 139.878906 L 331.5625 139.878906 L 331.5625 138.878906 Z M 292.058594 387.710938 C 292.714844 387.425781 293.351562 387.128906 294.003906 386.835938 L 292.058594 386.835938 Z M 292.058594 382.386719 L 303.226562 382.386719 C 303.867188 382.054688 304.515625 381.722656 305.148438 381.386719 L 292.058594 381.386719 Z M 292.058594 376.933594 L 313 376.933594 C 313.554688 376.601562 314.117188 376.273438 314.667969 375.933594 L 292.058594 375.933594 Z M 292.058594 371.484375 L 321.515625 371.484375 C 322.003906 371.152344 322.496094 370.820312 322.980469 370.484375 L 292.058594 370.484375 Z M 292.058594 365.03125 L 292.058594 366.03125 L 322.640625 366.03125 L 322.640625 365.03125 Z M 296.058594 348.1875 L 323.792969 348.1875 L 323.792969 347.1875 L 296.058594 347.1875 Z M 339.203125 343.40625 L 322.210938 343.40625 L 322.210938 344.40625 L 339.203125 344.40625 Z M 296.058594 343.40625 L 296.058594 344.40625 L 313.050781 344.40625 L 313.050781 343.40625 Z M 296.058594 329.191406 L 323.792969 329.191406 L 323.792969 328.191406 L 296.058594 328.191406 Z M 296.058594 325.40625 L 333.125 325.40625 L 333.125 324.40625 L 296.058594 324.40625 Z M 291.558594 352.363281 L 344.851562 352.363281 C 345.1875 352.035156 345.515625 351.695312 345.847656 351.363281 L 292.558594 351.363281 L 292.558594 340.226562 L 356.082031 340.226562 C 356.359375 339.894531 356.644531 339.5625 356.921875 339.226562 L 291.558594 339.226562 Z M 292.558594 332.277344 L 357.425781 332.277344 L 357.425781 321.140625 L 292.558594 321.140625 Z M 291.558594 320.140625 L 358.425781 320.140625 L 358.425781 333.277344 L 291.558594 333.277344 Z M 354.324219 294.996094 L 338.859375 294.996094 L 338.859375 295.996094 L 354.324219 295.996094 Z M 292.558594 305.394531 L 305.09375 305.394531 L 305.09375 295.996094 L 292.558594 295.996094 Z M 291.558594 294.996094 L 306.09375 294.996094 L 306.09375 306.394531 L 291.558594 306.394531 Z M 311.523438 306.394531 L 324.976562 306.394531 L 324.976562 305.394531 L 311.523438 305.394531 Z M 332.859375 300.195312 L 311.523438 300.195312 L 311.523438 301.195312 L 332.859375 301.195312 Z M 311.523438 295.996094 L 326.992188 295.996094 L 326.992188 294.996094 L 311.523438 294.996094 Z M 338.859375 301.195312 L 347.390625 301.195312 L 347.390625 300.195312 L 338.859375 300.195312 Z M 311.523438 273.78125 L 322.640625 273.78125 L 322.640625 272.78125 L 311.523438 272.78125 Z M 311.523438 268.582031 L 322.640625 268.582031 L 322.640625 267.582031 L 311.523438 267.582031 Z M 311.523438 278.980469 L 327.925781 278.980469 L 327.925781 277.980469 L 311.523438 277.980469 Z M 338.859375 268.582031 L 354.324219 268.582031 L 354.324219 267.582031 L 338.859375 267.582031 Z M 357.925781 272.78125 L 338.859375 272.78125 L 338.859375 273.78125 L 357.925781 273.78125 Z M 292.558594 277.980469 L 305.09375 277.980469 L 305.09375 268.582031 L 292.558594 268.582031 Z M 291.558594 267.582031 L 306.09375 267.582031 L 306.09375 278.980469 L 291.558594 278.980469 Z M 311.523438 246.367188 L 321.058594 246.367188 L 321.058594 245.367188 L 311.523438 245.367188 Z M 311.523438 241.167969 L 326.992188 241.167969 L 326.992188 240.167969 L 311.523438 240.167969 Z M 311.523438 251.566406 L 327.925781 251.566406 L 327.925781 250.566406 L 311.523438 250.566406 Z M 338.859375 245.367188 L 338.859375 246.367188 L 350.859375 246.367188 L 350.859375 245.367188 Z M 292.558594 250.566406 L 305.09375 250.566406 L 305.09375 241.167969 L 292.558594 241.167969 Z M 291.558594 240.167969 L 306.09375 240.167969 L 306.09375 251.566406 L 291.558594 251.566406 Z M 357.925781 240.167969 L 338.859375 240.167969 L 338.859375 241.167969 L 357.925781 241.167969 Z M 338.859375 218.953125 L 347.660156 218.953125 L 347.660156 217.953125 L 338.859375 217.953125 Z M 354.324219 212.753906 L 338.859375 212.753906 L 338.859375 213.753906 L 354.324219 213.753906 Z M 292.558594 223.152344 L 305.09375 223.152344 L 305.09375 213.753906 L 292.558594 213.753906 Z M 291.558594 212.753906 L 306.09375 212.753906 L 306.09375 224.152344 L 291.558594 224.152344 Z M 311.523438 224.152344 L 322.640625 224.152344 L 322.640625 223.152344 L 311.523438 223.152344 Z M 311.523438 213.753906 L 326.992188 213.753906 L 326.992188 212.753906 L 311.523438 212.753906 Z M 311.523438 218.953125 L 330.59375 218.953125 L 330.59375 217.953125 L 311.523438 217.953125 Z M 311.523438 185.339844 L 311.523438 186.339844 L 326.992188 186.339844 L 326.992188 185.339844 Z M 338.859375 185.339844 L 338.859375 186.339844 L 354.324219 186.339844 L 354.324219 185.339844 Z M 357.925781 190.539062 L 338.859375 190.539062 L 338.859375 191.539062 L 357.925781 191.539062 Z M 311.523438 196.738281 L 327.925781 196.738281 L 327.925781 195.738281 L 311.523438 195.738281 Z M 311.523438 191.539062 L 330.59375 191.539062 L 330.59375 190.539062 L 311.523438 190.539062 Z M 292.558594 195.738281 L 305.09375 195.738281 L 305.09375 186.339844 L 292.558594 186.339844 Z M 291.558594 185.339844 L 306.09375 185.339844 L 306.09375 196.738281 L 291.558594 196.738281 Z M 281.292969 120.925781 L 281.292969 391.996094 C 281.625 391.875 281.960938 391.761719 282.292969 391.640625 L 282.292969 121.925781 L 368.3125 121.925781 L 368.3125 323.882812 C 368.644531 323.378906 368.980469 322.871094 369.3125 322.363281 L 369.3125 120.925781 Z M 51.292969 241.441406 L 90.628906 241.441406 L 90.628906 240.441406 L 51.292969 240.441406 Z M 106.628906 234.988281 L 51.292969 234.988281 L 51.292969 235.988281 L 106.628906 235.988281 Z M 75.761719 230.539062 L 94.902344 230.539062 L 94.902344 229.539062 L 75.761719 229.539062 Z M 51.292969 230.539062 L 70.4375 230.539062 L 70.4375 229.539062 L 51.292969 229.539062 Z M 101.207031 224.085938 L 78.675781 224.085938 L 78.675781 225.085938 L 101.207031 225.085938 Z M 73.828125 224.085938 L 51.292969 224.085938 L 51.292969 225.085938 L 73.828125 225.085938 Z M 106.628906 213.160156 L 51.292969 213.160156 L 51.292969 214.160156 L 106.628906 214.160156 Z M 51.292969 208.710938 L 70.4375 208.710938 L 70.4375 207.710938 L 51.292969 207.710938 Z M 51.292969 203.257812 L 96.761719 203.257812 L 96.761719 202.257812 L 51.292969 202.257812 Z M 51.292969 197.808594 L 89.582031 197.808594 L 89.582031 196.808594 L 51.292969 196.808594 Z M 51.292969 192.355469 L 102.289062 192.355469 L 102.289062 191.355469 L 51.292969 191.355469 Z M 51.292969 185.90625 L 51.292969 186.90625 L 81.878906 186.90625 L 81.878906 185.90625 Z M 83.027344 168.0625 L 55.292969 168.0625 L 55.292969 169.0625 L 83.027344 169.0625 Z M 98.4375 164.277344 L 81.445312 164.277344 L 81.445312 165.277344 L 98.4375 165.277344 Z M 72.289062 164.277344 L 55.292969 164.277344 L 55.292969 165.277344 L 72.289062 165.277344 Z M 83.027344 149.0625 L 55.292969 149.0625 L 55.292969 150.0625 L 83.027344 150.0625 Z M 92.359375 145.28125 L 55.292969 145.28125 L 55.292969 146.28125 L 92.359375 146.28125 Z M 116.660156 161.101562 L 51.792969 161.101562 L 51.792969 172.238281 L 116.660156 172.238281 Z M 117.660156 173.238281 L 50.792969 173.238281 L 50.792969 160.101562 L 117.660156 160.101562 Z M 116.660156 142.011719 L 51.792969 142.011719 L 51.792969 153.148438 L 116.660156 153.148438 Z M 117.660156 154.148438 L 50.792969 154.148438 L 50.792969 141.011719 L 117.660156 141.011719 Z M 86.226562 115.867188 L 70.761719 115.867188 L 70.761719 116.867188 L 86.226562 116.867188 Z M 92.09375 121.070312 L 70.761719 121.070312 L 70.761719 122.070312 L 92.09375 122.070312 Z M 113.5625 115.867188 L 98.09375 115.867188 L 98.09375 116.867188 L 113.5625 116.867188 Z M 64.328125 116.867188 L 51.792969 116.867188 L 51.792969 126.269531 L 64.328125 126.269531 Z M 65.328125 127.269531 L 50.792969 127.269531 L 50.792969 115.867188 L 65.328125 115.867188 Z M 84.210938 126.269531 L 70.761719 126.269531 L 70.761719 127.269531 L 84.210938 127.269531 Z M 106.628906 121.070312 L 98.09375 121.070312 L 98.09375 122.070312 L 106.628906 122.070312 Z M 117.160156 93.65625 L 98.09375 93.65625 L 98.09375 94.65625 L 117.160156 94.65625 Z M 113.5625 88.453125 L 98.09375 88.453125 L 98.09375 89.453125 L 113.5625 89.453125 Z M 64.328125 89.453125 L 51.792969 89.453125 L 51.792969 98.855469 L 64.328125 98.855469 Z M 65.328125 99.855469 L 50.792969 99.855469 L 50.792969 88.453125 L 65.328125 88.453125 Z M 81.878906 88.453125 L 70.761719 88.453125 L 70.761719 89.453125 L 81.878906 89.453125 Z M 87.160156 98.855469 L 70.761719 98.855469 L 70.761719 99.855469 L 87.160156 99.855469 Z M 81.878906 93.65625 L 70.761719 93.65625 L 70.761719 94.65625 L 81.878906 94.65625 Z M 87.160156 71.441406 L 70.761719 71.441406 L 70.761719 72.441406 L 87.160156 72.441406 Z M 117.160156 61.039062 L 98.09375 61.039062 L 98.09375 62.039062 L 117.160156 62.039062 Z M 80.292969 66.242188 L 70.761719 66.242188 L 70.761719 67.242188 L 80.292969 67.242188 Z M 86.226562 61.039062 L 71.746094 61.039062 C 71.417969 61.367188 71.089844 61.691406 70.761719 62.015625 L 70.761719 62.039062 L 86.226562 62.039062 Z M 110.09375 66.242188 L 98.09375 66.242188 L 98.09375 67.242188 L 110.09375 67.242188 Z M 65.328125 67.601562 C 64.992188 67.957031 64.660156 68.324219 64.328125 68.683594 L 64.328125 71.441406 L 61.792969 71.441406 C 61.496094 71.773438 61.207031 72.109375 60.910156 72.441406 L 65.328125 72.441406 Z M 106.894531 38.828125 L 98.09375 38.828125 L 98.09375 39.828125 L 106.894531 39.828125 Z M 113.5625 33.628906 L 105.390625 33.628906 C 104.894531 33.957031 104.40625 34.292969 103.914062 34.628906 L 113.5625 34.628906 Z M 127.546875 20.75 C 127.882812 20.582031 128.210938 20.40625 128.546875 20.242188 L 128.546875 250.320312 L 40.527344 250.320312 L 40.527344 98.757812 C 40.859375 98.261719 41.191406 97.765625 41.527344 97.273438 L 41.527344 249.320312 L 127.546875 249.320312 L 127.546875 20.75" fill="#f9d291"/></g><g clip-path="url(#a)" id="change3_1"><path d="M 283.023438 66.003906 C 287.632812 70.609375 287.859375 76.65625 284.210938 80.785156 C 281.171875 84.226562 278.546875 86.421875 276.382812 85.585938 C 275.570312 85.273438 274.703125 85.273438 273.894531 85.585938 C 271.730469 86.421875 269.101562 84.226562 266.0625 80.785156 C 262.414062 76.65625 262.640625 70.609375 267.25 66.003906 C 269.460938 63.792969 272.242188 64.820312 273.839844 65.746094 C 274.644531 66.210938 275.625 66.210938 276.425781 65.738281 C 278.015625 64.804688 280.785156 63.761719 283.023438 66.003906 Z M 263.671875 51.855469 C 270.972656 50.890625 273.738281 61.421875 273.738281 61.421875 C 260.539062 60.121094 263.671875 51.855469 263.671875 51.855469 Z M 85.917969 345.171875 C 82.195312 344.363281 79.179688 339.648438 79.179688 334.570312 C 79.179688 329.496094 82.195312 325.988281 85.917969 326.796875 C 89.636719 327.605469 92.65625 332.324219 92.65625 337.398438 C 92.65625 342.472656 89.636719 345.980469 85.917969 345.171875 Z M 115.019531 325.375 C 95.125 326.640625 76.71875 319.535156 56.816406 320.808594 C 56.816406 323.40625 54.710938 325.886719 52.109375 326.78125 C 52.109375 333.335938 52.109375 336.609375 52.109375 343.160156 C 54.710938 342.265625 56.816406 344 56.816406 346.597656 C 76.722656 345.328125 95.125 352.433594 115.019531 351.164062 C 115.019531 348.566406 117.125 346.085938 119.722656 345.191406 C 119.722656 338.640625 119.722656 335.363281 119.722656 328.8125 C 117.125 329.703125 115.019531 327.972656 115.019531 325.375 Z M 37.359375 310.3125 C 33.636719 311.117188 30.621094 307.609375 30.621094 302.535156 C 30.621094 297.460938 33.636719 292.742188 37.359375 291.933594 C 41.082031 291.128906 44.097656 294.636719 44.097656 299.710938 C 44.097656 304.785156 41.082031 309.503906 37.359375 310.3125 Z M 66.460938 311.734375 C 66.460938 309.136719 68.566406 307.40625 71.164062 308.300781 C 71.164062 301.746094 71.164062 298.472656 71.164062 291.917969 C 68.566406 291.023438 66.460938 288.542969 66.460938 285.945312 C 46.554688 284.671875 28.152344 291.78125 8.257812 290.511719 C 8.257812 293.109375 6.148438 294.84375 3.550781 293.949219 C 3.550781 300.503906 3.550781 303.777344 3.550781 310.328125 C 6.148438 311.222656 8.257812 313.703125 8.257812 316.300781 C 28.152344 317.570312 46.554688 310.464844 66.460938 311.734375 Z M 30.070312 92.84375 L 30.070312 91.84375 L 93.269531 91.84375 L 93.269531 92.84375 Z M 43.40625 78.210938 C 43.40625 76.335938 44.925781 74.8125 46.804688 74.8125 C 48.683594 74.8125 50.203125 76.335938 50.203125 78.210938 C 50.203125 80.089844 48.683594 81.609375 46.804688 81.609375 C 44.925781 81.609375 43.40625 80.089844 43.40625 78.210938 Z M 34.40625 80.644531 L 34.40625 75.777344 C 34.40625 75.246094 34.835938 74.8125 35.371094 74.8125 L 40.238281 74.8125 C 40.773438 74.8125 41.203125 75.246094 41.203125 75.777344 L 41.203125 80.644531 C 41.203125 81.179688 40.773438 81.609375 40.238281 81.609375 L 35.371094 81.609375 C 34.835938 81.609375 34.40625 81.179688 34.40625 80.644531 Z M 30.070312 95.476562 L 93.269531 95.476562 L 93.269531 102.144531 L 30.070312 102.144531 Z M 413.230469 80.277344 L 342.027344 143.476562 L 297.496094 92.007812 C 297.496094 92.007812 305.097656 70.007812 318.695312 62.007812 C 332.296875 54.007812 344.296875 46.007812 348.695312 34.410156 L 362.128906 30.648438 L 358.242188 26.410156 L 364.039062 11.179688 L 368.863281 10.328125 L 400.910156 45.304688 L 395.269531 59.519531 Z M 230.859375 130.113281 C 230.636719 130.914062 228.335938 130.113281 228.335938 130.113281 C 228.335938 130.113281 228.050781 132.875 225.195312 134.046875 C 223.574219 134.707031 221.882812 134.671875 220.40625 134.570312 C 220.40625 134.570312 220.40625 134.570312 220.402344 134.570312 C 219.953125 134.539062 219.519531 134.507812 219.117188 134.480469 C 219.089844 134.480469 219.058594 134.480469 219.03125 134.476562 C 218.8125 134.464844 218.613281 134.460938 218.414062 134.460938 C 218.347656 134.460938 218.273438 134.457031 218.207031 134.457031 C 217.964844 134.460938 217.742188 134.476562 217.539062 134.511719 C 215.835938 134.8125 211.824219 133.683594 210.148438 134.496094 L 190.488281 144.039062 L 187.757812 135.910156 L 186.285156 131.53125 L 207.152344 126.8125 C 207.152344 126.8125 207.226562 126.765625 207.347656 126.683594 C 207.375 126.664062 207.402344 126.648438 207.433594 126.625 C 207.449219 126.613281 207.472656 126.597656 207.488281 126.585938 C 207.53125 126.558594 207.570312 126.535156 207.617188 126.503906 C 207.671875 126.464844 207.730469 126.425781 207.792969 126.382812 C 207.816406 126.367188 207.835938 126.355469 207.859375 126.339844 C 207.921875 126.300781 207.988281 126.253906 208.058594 126.210938 C 208.089844 126.1875 208.117188 126.167969 208.148438 126.148438 C 208.242188 126.085938 208.335938 126.023438 208.4375 125.957031 C 208.441406 125.953125 208.449219 125.949219 208.453125 125.945312 C 208.554688 125.882812 208.660156 125.8125 208.769531 125.738281 C 208.796875 125.722656 208.820312 125.707031 208.847656 125.6875 C 208.945312 125.625 209.046875 125.558594 209.148438 125.492188 C 209.183594 125.46875 209.21875 125.445312 209.257812 125.421875 C 209.363281 125.355469 209.46875 125.285156 209.582031 125.210938 C 209.617188 125.1875 209.65625 125.164062 209.691406 125.140625 C 209.808594 125.066406 209.929688 124.988281 210.054688 124.90625 C 210.078125 124.890625 210.109375 124.871094 210.136719 124.855469 C 210.265625 124.773438 210.398438 124.6875 210.535156 124.601562 C 210.5625 124.582031 210.59375 124.566406 210.621094 124.546875 C 210.761719 124.457031 210.898438 124.367188 211.042969 124.277344 C 211.066406 124.265625 211.089844 124.25 211.113281 124.234375 C 211.261719 124.140625 211.414062 124.046875 211.570312 123.949219 C 211.585938 123.941406 211.601562 123.929688 211.613281 123.921875 C 215.089844 121.757812 219.492188 119.246094 220.503906 119.714844 C 222.238281 120.511719 228.691406 125.414062 229.914062 126.8125 C 231.136719 128.214844 231.085938 129.3125 230.859375 130.113281 Z M 170.769531 135.042969 C 170.769531 135.042969 171.96875 132.96875 173.742188 129.785156 C 174.230469 131.238281 174.714844 132.664062 175.1875 134.046875 Z M 242.550781 123.375 C 242.550781 123.375 232.433594 101.296875 225.957031 91.230469 C 223.183594 86.300781 217.410156 81.296875 213.933594 78.550781 L 220.789062 80.1875 C 220.789062 80.1875 220.054688 76.320312 217.523438 72.519531 C 215.164062 68.984375 210.136719 68.566406 209.449219 68.523438 C 209.398438 68.523438 209.367188 68.519531 209.367188 68.519531 C 209.421875 69.101562 209.464844 69.679688 209.5 70.261719 C 209.527344 70.714844 209.546875 71.171875 209.5625 71.625 C 209.566406 71.734375 209.570312 71.84375 209.574219 71.953125 C 209.679688 75.730469 209.359375 79.515625 208.613281 83.230469 L 208.554688 83.511719 C 208.472656 83.539062 208.390625 83.5625 208.308594 83.585938 C 207.753906 82.019531 205.671875 76.507812 203.390625 75.253906 C 202.226562 74.613281 199.804688 72.789062 197.4375 70.933594 C 197.339844 70.855469 197.246094 70.78125 197.152344 70.710938 C 196.90625 70.515625 196.664062 70.324219 196.421875 70.132812 C 196.34375 70.066406 196.261719 70.003906 196.183594 69.941406 C 195.855469 69.683594 195.535156 69.425781 195.226562 69.175781 C 195.214844 69.167969 195.199219 69.15625 195.1875 69.148438 C 193.316406 67.648438 191.796875 66.394531 191.46875 66.121094 C 191.417969 66.082031 191.386719 66.054688 191.386719 66.054688 C 191.386719 66.054688 189.921875 66.054688 187.921875 67.386719 C 186.054688 68.632812 183.4375 75.078125 183.097656 75.925781 C 179.515625 77.550781 174.667969 80.101562 170.882812 83.410156 C 170.289062 83.738281 169.6875 84.109375 169.082031 84.554688 C 167.582031 85.652344 166.292969 87.011719 165.175781 88.496094 C 163.355469 90.914062 160.144531 95.558594 157.402344 101.507812 C 151.199219 114.96875 145.070312 133.910156 144.433594 139.34375 C 142.523438 155.636719 159.703125 153.964844 173.621094 150.085938 C 173.214844 156.914062 173.265625 163.605469 174.867188 164.839844 C 178.335938 167.507812 198.023438 168.039062 206.113281 168.039062 C 214.203125 168.039062 220.933594 166.441406 220.933594 166.441406 L 220.933594 151.90625 L 221.269531 151.90625 C 221.269531 151.90625 222.589844 146.160156 224.046875 139.4375 C 226.914062 143.160156 229.351562 146.027344 230.796875 147.332031 C 250.953125 165.546875 261.304688 112.515625 261.304688 112.515625 L 248.679688 108.695312 L 242.550781 123.375" fill="#52c280"/></g><g clip-path="url(#b)" id="change4_1"><path d="M 85.917969 345.171875 C 89.636719 345.980469 92.65625 342.472656 92.65625 337.398438 C 92.65625 332.324219 89.636719 327.605469 85.917969 326.796875 C 82.195312 325.988281 79.179688 329.496094 79.179688 334.570312 C 79.179688 339.648438 82.195312 344.363281 85.917969 345.171875 Z M 56.816406 320.808594 C 56.816406 323.40625 54.710938 325.886719 52.109375 326.78125 C 52.109375 333.335938 52.109375 336.609375 52.109375 343.160156 C 54.710938 342.265625 56.816406 344 56.816406 346.597656 C 76.722656 345.328125 95.125 352.433594 115.019531 351.164062 C 115.019531 348.566406 117.125 346.085938 119.722656 345.191406 C 119.722656 338.640625 119.722656 335.363281 119.722656 328.8125 C 117.125 329.703125 115.019531 327.972656 115.019531 325.375 C 95.125 326.640625 76.71875 319.535156 56.816406 320.808594 Z M 122.335938 321.433594 C 122.335938 331.773438 122.335938 342.113281 122.335938 352.453125 C 97.339844 358.480469 74.496094 344.507812 49.496094 350.535156 C 49.496094 340.195312 49.496094 329.859375 49.496094 319.519531 C 74.496094 313.492188 97.339844 327.457031 122.335938 321.433594 Z M 37.359375 291.933594 C 33.636719 292.742188 30.621094 297.460938 30.621094 302.535156 C 30.621094 307.609375 33.636719 311.117188 37.359375 310.3125 C 41.082031 309.503906 44.097656 304.785156 44.097656 299.710938 C 44.097656 294.636719 41.082031 291.128906 37.359375 291.933594 Z M 66.460938 311.734375 C 66.460938 309.136719 68.566406 307.40625 71.164062 308.300781 C 71.164062 301.746094 71.164062 298.472656 71.164062 291.917969 C 68.566406 291.023438 66.460938 288.542969 66.460938 285.945312 C 46.554688 284.671875 28.152344 291.78125 8.257812 290.511719 C 8.257812 293.109375 6.148438 294.84375 3.550781 293.949219 C 3.550781 300.503906 3.550781 303.777344 3.550781 310.328125 C 6.148438 311.222656 8.257812 313.703125 8.257812 316.300781 C 28.152344 317.570312 46.554688 310.464844 66.460938 311.734375 Z M 0.9375 317.589844 C 0.9375 307.25 0.9375 296.910156 0.9375 286.574219 C 25.9375 292.597656 48.78125 278.628906 73.777344 284.65625 C 73.777344 294.996094 73.777344 305.335938 73.777344 315.675781 C 48.78125 309.644531 25.9375 323.617188 0.9375 317.589844 Z M 34.105469 109.539062 L 89.238281 109.539062 C 91.464844 109.539062 93.269531 107.734375 93.269531 105.507812 L 93.269531 102.144531 L 30.070312 102.144531 L 30.070312 105.507812 C 30.070312 107.734375 31.878906 109.539062 34.105469 109.539062 Z M 93.269531 92.84375 L 30.070312 92.84375 L 30.070312 95.476562 L 93.269531 95.476562 Z M 50.203125 78.210938 C 50.203125 76.335938 48.683594 74.8125 46.804688 74.8125 C 44.925781 74.8125 43.40625 76.335938 43.40625 78.210938 C 43.40625 80.089844 44.925781 81.609375 46.804688 81.609375 C 48.683594 81.609375 50.203125 80.089844 50.203125 78.210938 Z M 41.203125 75.777344 C 41.203125 75.246094 40.773438 74.8125 40.238281 74.8125 L 35.371094 74.8125 C 34.835938 74.8125 34.40625 75.246094 34.40625 75.777344 L 34.40625 80.644531 C 34.40625 81.179688 34.835938 81.609375 35.371094 81.609375 L 40.238281 81.609375 C 40.773438 81.609375 41.203125 81.179688 41.203125 80.644531 Z M 93.269531 91.84375 L 30.070312 91.84375 L 30.070312 73.84375 C 30.070312 71.617188 31.878906 69.8125 34.105469 69.8125 L 89.238281 69.8125 C 91.464844 69.8125 93.269531 71.617188 93.269531 73.84375 Z M 389.871094 57.226562 L 393.679688 47.230469 L 364.933594 15.859375 L 361.128906 25.859375 Z M 390.765625 61.90625 L 358.242188 26.410156 L 364.039062 11.179688 L 396.5625 46.675781 Z M 365.292969 17.730469 L 362.28125 25.636719 L 389.515625 55.355469 L 392.523438 47.449219 Z M 381.777344 92.175781 C 386.128906 87.828125 387.496094 83.015625 387.496094 83.015625 L 380.175781 74.558594 C 377.828125 77.851562 371.46875 85.910156 363.285156 89.582031 L 371.472656 99.042969 C 371.472656 99.042969 376.355469 97.601562 381.777344 92.175781 Z M 357.523438 48.375 L 350.933594 40.761719 C 344.238281 52.582031 334.910156 56.789062 334.910156 56.789062 L 340.707031 63.488281 C 349.386719 59.953125 356.253906 50.253906 357.523438 48.375 Z M 379.496094 73.773438 L 361.570312 53.054688 C 359.054688 56.53125 352.855469 64.222656 344.800781 68.21875 L 362.601562 88.792969 C 370.773438 85.234375 377.289062 76.867188 379.496094 73.773438 Z M 304.984375 90.222656 C 304.007812 92.398438 303.457031 93.886719 303.445312 93.921875 L 303.359375 93.886719 L 306.550781 97.601562 C 306.894531 96.738281 307.433594 95.441406 308.144531 93.890625 Z M 318.800781 106.242188 C 318.011719 108.019531 317.472656 109.402344 317.234375 110.03125 L 320.355469 113.664062 C 320.726562 112.722656 321.265625 111.414062 321.957031 109.902344 Z M 328.007812 116.917969 C 327.257812 118.621094 326.722656 119.984375 326.4375 120.742188 L 329.554688 124.371094 C 329.941406 123.386719 330.484375 122.078125 331.164062 120.574219 Z M 332.613281 122.257812 C 331.878906 123.921875 331.34375 125.289062 331.035156 126.097656 L 334.15625 129.726562 C 334.550781 128.722656 335.089844 127.410156 335.765625 125.910156 Z M 314.195312 100.902344 C 313.363281 102.769531 312.824219 104.160156 312.632812 104.679688 L 315.753906 108.3125 C 316.117188 107.390625 316.652344 106.09375 317.351562 104.5625 Z M 323.402344 111.578125 C 322.636719 113.320312 322.097656 114.6875 321.835938 115.386719 L 324.953125 119.019531 C 325.335938 118.054688 325.875 116.746094 326.558594 115.238281 Z M 309.589844 95.5625 C 308.703125 97.539062 308.160156 98.96875 308.027344 99.324219 L 311.152344 102.957031 C 311.507812 102.0625 312.042969 100.765625 312.75 99.226562 Z M 335.636719 131.449219 L 338.753906 135.078125 C 339.15625 134.054688 339.695312 132.738281 340.367188 131.246094 L 337.214844 127.59375 C 336.496094 129.238281 335.957031 130.601562 335.636719 131.449219 Z M 330.3125 108.03125 L 327.085938 104.324219 C 326.136719 105.945312 325.289062 107.570312 324.5625 109.078125 L 327.746094 112.742188 C 328.496094 111.230469 329.355469 109.625 330.3125 108.03125 Z M 340.917969 120.21875 C 339.976562 121.84375 339.128906 123.476562 338.398438 125.003906 L 341.578125 128.667969 C 342.332031 127.132812 343.1875 125.519531 344.136719 123.921875 Z M 339.527344 118.621094 L 336.308594 114.921875 C 335.363281 116.546875 334.515625 118.175781 333.785156 119.695312 L 336.96875 123.359375 C 337.722656 121.832031 338.574219 120.21875 339.527344 118.621094 Z M 325.699219 102.730469 L 322.472656 99.023438 C 321.519531 100.648438 320.675781 102.269531 319.949219 103.765625 L 323.132812 107.433594 C 323.878906 105.925781 324.742188 104.324219 325.699219 102.730469 Z M 310.722656 93.144531 L 313.90625 96.8125 C 314.652344 95.320312 315.515625 93.726562 316.480469 92.132812 L 313.25 88.421875 C 312.289062 90.046875 311.441406 91.660156 310.722656 93.144531 Z M 334.917969 113.324219 L 331.695312 109.621094 C 330.75 111.246094 329.902344 112.875 329.175781 114.386719 L 332.355469 118.050781 C 333.109375 116.53125 333.964844 114.921875 334.917969 113.324219 Z M 321.089844 97.433594 L 317.863281 93.722656 C 316.90625 95.347656 316.058594 96.964844 315.335938 98.453125 L 318.519531 102.121094 C 319.265625 100.625 320.128906 99.023438 321.089844 97.433594 Z M 311.867188 86.835938 L 308.636719 83.117188 C 307.675781 84.742188 306.824219 86.359375 306.105469 87.828125 L 309.292969 91.5 C 310.039062 90.019531 310.902344 88.425781 311.867188 86.835938 Z M 331.445312 78.140625 L 334.695312 81.882812 C 337.097656 79.8125 338.847656 78.53125 339.214844 78.265625 L 335.910156 74.582031 C 335.867188 74.613281 334.027344 75.925781 331.445312 78.140625 Z M 336.015625 83.402344 L 339.265625 87.148438 C 341.652344 85.070312 343.394531 83.78125 343.761719 83.519531 L 340.460938 79.832031 C 340.417969 79.859375 338.589844 81.179688 336.015625 83.402344 Z M 330.125 67.757812 L 326.808594 64.085938 C 326.765625 64.113281 324.90625 65.417969 322.304688 67.617188 L 325.554688 71.359375 C 327.980469 69.300781 329.746094 68.023438 330.125 67.757812 Z M 330.125 76.621094 C 332.535156 74.554688 334.296875 73.277344 334.667969 73.011719 L 331.359375 69.332031 C 331.316406 69.363281 329.46875 70.671875 326.875 72.878906 Z M 357.398438 99.277344 L 354.113281 95.582031 C 354.070312 95.609375 352.265625 96.941406 349.722656 99.191406 L 352.972656 102.933594 C 355.328125 100.839844 357.042969 99.542969 357.398438 99.277344 Z M 361.945312 104.53125 L 358.664062 100.828125 C 358.621094 100.859375 356.824219 102.195312 354.289062 104.453125 L 357.539062 108.195312 C 359.886719 106.097656 361.59375 104.796875 361.945312 104.53125 Z M 340.582031 88.664062 L 343.832031 92.410156 C 346.210938 90.328125 347.945312 89.035156 348.308594 88.773438 L 345.011719 85.082031 C 344.96875 85.109375 343.148438 86.433594 340.582031 88.664062 Z M 345.152344 93.929688 L 348.402344 97.671875 C 350.769531 95.585938 352.492188 94.289062 352.851562 94.023438 L 349.5625 90.332031 C 349.519531 90.359375 347.707031 91.6875 345.152344 93.929688 Z M 355.617188 109.96875 L 352.378906 106.207031 C 351.167969 107.351562 349.875 108.640625 348.5625 110.058594 L 351.820312 113.8125 C 353.132812 112.394531 354.417969 111.109375 355.617188 109.96875 Z M 351.0625 104.683594 L 347.824219 100.921875 C 346.605469 102.0625 345.296875 103.355469 343.972656 104.777344 L 347.234375 108.53125 C 348.558594 107.113281 349.851562 105.820312 351.0625 104.683594 Z M 323.730469 72.960938 L 320.488281 69.199219 C 319.210938 70.34375 317.835938 71.640625 316.445312 73.074219 L 319.714844 76.835938 C 321.097656 75.402344 322.460938 74.105469 323.730469 72.960938 Z M 321.035156 78.355469 L 324.300781 82.117188 C 325.675781 80.6875 327.027344 79.390625 328.285156 78.246094 L 325.042969 74.484375 C 323.773438 75.628906 322.414062 76.929688 321.035156 78.355469 Z M 325.625 83.640625 L 328.890625 87.402344 C 330.253906 85.972656 331.59375 84.675781 332.839844 83.535156 L 329.601562 79.773438 C 328.339844 80.917969 326.992188 82.214844 325.625 83.640625 Z M 338.0625 97.96875 C 339.40625 96.542969 340.722656 95.25 341.953125 94.109375 L 338.710938 90.347656 C 337.472656 91.488281 336.144531 92.785156 334.800781 94.210938 Z M 346.507812 99.394531 L 343.265625 95.632812 C 342.039062 96.777344 340.722656 98.070312 339.386719 99.492188 L 342.648438 103.25 C 343.980469 101.828125 345.289062 100.535156 346.507812 99.394531 Z M 330.210938 88.925781 L 333.476562 92.683594 C 334.828125 91.257812 336.15625 89.964844 337.394531 88.820312 L 334.15625 85.0625 C 332.90625 86.203125 331.566406 87.5 330.210938 88.925781 Z M 318.046875 78.617188 L 314.789062 74.835938 C 313.480469 76.285156 312.195312 77.835938 311.019531 79.464844 C 310.917969 79.601562 310.824219 79.746094 310.726562 79.882812 L 313.972656 83.636719 C 315.253906 81.855469 316.640625 80.175781 318.046875 78.617188 Z M 315.570312 84.839844 C 315.484375 84.957031 315.40625 85.078125 315.320312 85.199219 L 318.570312 88.949219 C 319.84375 87.171875 321.222656 85.488281 322.621094 83.925781 L 319.363281 80.144531 C 318.046875 81.613281 316.753906 83.1875 315.570312 84.839844 Z M 331.769531 94.546875 L 328.515625 90.765625 C 327.179688 92.273438 325.871094 93.894531 324.671875 95.59375 C 324.617188 95.667969 324.566406 95.746094 324.515625 95.820312 L 327.761719 99.574219 C 329.027344 97.792969 330.390625 96.109375 331.769531 94.546875 Z M 340.921875 105.160156 L 337.667969 101.386719 C 336.3125 102.9375 334.984375 104.597656 333.769531 106.34375 C 333.746094 106.378906 333.726562 106.410156 333.703125 106.441406 L 336.953125 110.195312 C 338.207031 108.414062 339.554688 106.726562 340.921875 105.160156 Z M 323.941406 85.457031 C 322.613281 86.945312 321.3125 88.539062 320.121094 90.214844 C 320.050781 90.3125 319.988281 90.410156 319.917969 90.507812 L 323.164062 94.261719 C 324.4375 92.480469 325.808594 90.796875 327.195312 89.234375 Z M 336.347656 99.855469 L 333.089844 96.078125 C 331.746094 97.605469 330.429688 99.246094 329.21875 100.96875 C 329.183594 101.023438 329.148438 101.078125 329.109375 101.132812 L 332.359375 104.886719 C 333.617188 103.105469 334.972656 101.417969 336.347656 99.855469 Z M 345.496094 110.46875 L 342.242188 106.695312 C 340.878906 108.265625 339.542969 109.949219 338.320312 111.722656 C 338.3125 111.730469 338.308594 111.742188 338.300781 111.753906 L 341.550781 115.507812 C 342.800781 113.722656 344.136719 112.035156 345.496094 110.46875 Z M 350.066406 115.777344 L 346.816406 112.003906 C 345.453125 113.585938 344.117188 115.28125 342.894531 117.0625 L 346.144531 120.816406 C 347.386719 119.03125 348.71875 117.347656 350.066406 115.777344 Z M 393.230469 85.878906 C 388.828125 97.476562 376.828125 105.476562 363.230469 113.476562 C 349.628906 121.476562 342.027344 143.476562 342.027344 143.476562 L 394.429688 120.277344 L 413.230469 80.277344 Z M 237.988281 124.214844 C 238.386719 125.261719 237.339844 129.410156 237.339844 129.414062 C 237.339844 129.414062 237.339844 129.414062 237.34375 129.410156 L 238.402344 128.921875 L 238.417969 128.910156 L 238.421875 128.910156 C 238.429688 128.886719 239.664062 125.300781 239.1875 123.875 C 238.710938 122.449219 232.296875 118.164062 232.242188 118.128906 C 232.242188 118.128906 232.238281 118.125 232.238281 118.125 L 232.199219 118.132812 L 231.03125 118.324219 L 230.988281 118.335938 C 231.019531 118.355469 237.589844 123.164062 237.988281 124.214844 Z M 188.246094 111.289062 C 188.410156 116.195312 188.050781 125.121094 185.074219 131.808594 L 186.285156 131.53125 L 207.152344 126.8125 C 207.152344 126.8125 218.773438 118.914062 220.503906 119.714844 C 221.84375 120.332031 225.992188 123.390625 228.378906 125.402344 C 229.535156 120.421875 230.390625 116.03125 230.46875 113.640625 C 230.503906 112.640625 230.296875 111.332031 229.914062 109.808594 C 227.605469 100.636719 218.820312 83.6875 216.417969 79.144531 L 212.1875 78.132812 C 212.1875 78.132812 212.214844 78.464844 212.175781 78.96875 L 222.203125 102.707031 L 195.902344 102.441406 L 181.035156 76.902344 L 176.632812 79.292969 C 176.632812 79.292969 187.535156 103.773438 188.066406 108.574219 C 188.136719 109.199219 188.203125 110.136719 188.246094 111.289062 Z M 235.136719 212.574219 C 231.953125 186.011719 224.777344 158.804688 221.269531 152.042969 C 221.269531 152.042969 223.949219 142.910156 226.421875 133.339844 C 226.074219 133.605469 225.671875 133.847656 225.195312 134.046875 C 222.335938 135.214844 219.238281 134.214844 217.539062 134.511719 C 215.835938 134.8125 211.824219 133.683594 210.148438 134.496094 L 190.488281 144.039062 C 190.488281 144.039062 185.867188 146.132812 179.550781 148.257812 L 180.601562 152.042969 C 180.601562 152.042969 173.40625 202.707031 171.269531 221.90625 C 169.851562 234.628906 167.386719 269.707031 167.386719 269.707031 L 237.933594 269.707031 C 237.933594 269.707031 238.605469 241.527344 235.136719 212.574219 Z M 153.839844 418.722656 L 138.457031 418.722656 L 134.984375 437.648438 L 163.648438 437.648438 C 163.648438 437.648438 163.261719 434.925781 159.921875 431.441406 C 156.578125 427.957031 153.839844 418.722656 153.839844 418.722656 Z M 242.820312 433.605469 C 243.441406 434.300781 243.136719 435.378906 242.328125 435.378906 L 210.039062 435.378906 L 207.335938 418.722656 C 210.5 413.304688 217.984375 413.175781 222.730469 418.457031 L 222.972656 418.722656 C 222.972656 418.722656 229.347656 426.972656 235.851562 429.246094 C 239.5 430.519531 241.640625 432.292969 242.820312 433.605469" fill="#30526a"/></g><g id="change5_1"><path d="M 171.269531 221.90625 C 172.6875 209.179688 176.324219 182.640625 178.617188 166.183594 C 176.933594 165.820312 175.640625 165.394531 174.941406 164.886719 C 170.945312 172.25 161.0625 192.558594 158.46875 217.519531 C 155.195312 249.015625 159.800781 266.859375 149.230469 295.480469 C 138.65625 324.097656 138.457031 418.722656 138.457031 418.722656 L 153.839844 418.722656 L 179.589844 269.707031 L 167.386719 269.707031 C 167.386719 269.707031 169.851562 234.628906 171.269531 221.90625 Z M 167.898438 85.519531 C 168.277344 85.179688 168.671875 84.855469 169.082031 84.554688 C 169.6875 84.109375 170.289062 83.738281 170.882812 83.410156 C 174.667969 80.101562 179.515625 77.550781 183.097656 75.925781 C 183.4375 75.078125 186.054688 68.632812 187.921875 67.386719 C 189.921875 66.054688 191.386719 66.054688 191.386719 66.054688 C 191.386719 66.054688 191.417969 66.082031 191.46875 66.121094 C 191.816406 64.84375 192.128906 63.515625 192.402344 62.171875 C 193.070312 58.90625 193.296875 55.59375 193.152344 52.289062 C 193.382812 52.371094 193.617188 52.429688 193.855469 52.433594 C 194.242188 52.4375 194.628906 52.359375 194.960938 52.1875 C 195.292969 52.023438 195.589844 51.796875 195.796875 51.496094 C 195.835938 51.4375 195.847656 51.367188 195.828125 51.296875 C 195.796875 51.171875 195.664062 51.09375 195.535156 51.128906 L 195.527344 51.132812 C 195.214844 51.214844 194.9375 51.304688 194.664062 51.355469 C 194.386719 51.402344 194.125 51.441406 193.867188 51.4375 C 193.613281 51.4375 193.363281 51.40625 193.109375 51.34375 C 193.027344 50.089844 192.898438 48.839844 192.710938 47.597656 C 192.972656 47.539062 193.226562 47.460938 193.480469 47.386719 C 193.296875 48.160156 193.691406 49 194.378906 49.234375 C 194.425781 49.253906 194.484375 49.25 194.535156 49.226562 C 194.632812 49.175781 194.671875 49.054688 194.621094 48.957031 L 194.613281 48.933594 C 194.363281 48.4375 194.335938 47.976562 194.449219 47.605469 C 194.503906 47.421875 194.613281 47.246094 194.75 47.070312 C 194.8125 46.996094 194.886719 46.929688 194.964844 46.859375 C 195.035156 46.828125 195.109375 46.808594 195.179688 46.777344 C 196.53125 46.140625 197.832031 45.140625 198.273438 43.714844 C 198.835938 41.910156 197.9375 39.769531 198.902344 38.148438 C 199.851562 36.546875 202.027344 36.347656 203.867188 36.09375 C 206.492188 35.734375 209.125 34.871094 211.125 33.128906 C 213.121094 31.386719 214.378906 28.65625 213.878906 26.054688 C 215.769531 26.449219 217.660156 26.71875 219.578125 26.484375 C 220.035156 26.429688 220.492188 26.328125 220.9375 26.1875 C 222.90625 29.300781 223.609375 33.480469 224.007812 38.628906 C 224.519531 45.222656 223.761719 57.160156 220.679688 61.339844 C 217.738281 65.328125 214.957031 65.320312 209.714844 64.390625 C 209.707031 64.425781 209.703125 64.460938 209.699219 64.492188 C 208.753906 64.242188 207.820312 63.957031 206.921875 63.601562 C 205.371094 62.992188 203.894531 62.210938 202.609375 61.171875 C 201.296875 60.171875 200.191406 58.917969 199.222656 57.558594 C 198.253906 56.195312 197.445312 54.703125 196.671875 53.191406 C 196.628906 53.105469 196.53125 53.0625 196.4375 53.09375 C 196.339844 53.128906 196.285156 53.238281 196.320312 53.339844 C 196.875 54.964844 197.59375 56.546875 198.519531 58.023438 C 199.441406 59.503906 200.621094 60.839844 201.992188 61.953125 C 203.386719 63.035156 204.960938 63.875 206.617188 64.429688 C 207.59375 64.761719 208.59375 64.996094 209.605469 65.171875 C 209.46875 66.273438 209.421875 67.386719 209.449219 68.523438 C 210.136719 68.566406 215.164062 68.984375 217.523438 72.519531 C 220.054688 76.320312 220.789062 80.1875 220.789062 80.1875 L 213.933594 78.550781 C 216.566406 80.628906 220.515625 84.003906 223.480469 87.660156 C 224.199219 87.230469 224.992188 86.636719 225.890625 85.832031 C 227.941406 83.996094 227.199219 81.410156 229.710938 80.121094 C 231.890625 78.996094 235.003906 81.203125 236.957031 79.375 C 241.277344 75.328125 234.050781 70.128906 234.023438 65.375 C 233.996094 59.660156 238.625 50.382812 235.359375 44.839844 C 232.589844 40.140625 230.648438 39.441406 228.363281 33.773438 C 226.953125 30.269531 227.132812 25.511719 224.625 22.632812 C 225.09375 20.742188 224.316406 18.589844 222.890625 17.203125 C 221.226562 15.589844 218.878906 14.871094 216.578125 14.617188 C 211.882812 14.101562 207.175781 15.300781 202.457031 15.476562 C 198.789062 15.613281 194.988281 15.152344 191.558594 16.453125 C 188.328125 17.675781 185.796875 20.390625 184.363281 23.53125 C 184.355469 23.554688 184.347656 23.578125 184.335938 23.597656 C 181.324219 26.019531 179.632812 28.941406 178.472656 33.382812 C 177.835938 35.828125 178.761719 38.132812 177.324219 40.511719 C 176.203125 42.367188 174.050781 42.460938 172.882812 44.042969 C 168.261719 50.324219 172.789062 53.277344 170.816406 59.894531 C 168.988281 66.039062 163.683594 68.148438 162.691406 74.039062 C 161.769531 79.539062 164.285156 83.15625 167.898438 85.519531 Z M 162.605469 434.722656 C 160.386719 434.597656 158.164062 434.539062 155.945312 434.492188 C 153.726562 434.4375 151.507812 434.441406 149.289062 434.414062 L 142.632812 434.46875 C 140.414062 434.515625 138.191406 434.566406 135.972656 434.6875 C 135.859375 434.691406 135.765625 434.785156 135.761719 434.902344 C 135.753906 435.027344 135.847656 435.132812 135.972656 435.140625 C 138.191406 435.257812 140.414062 435.3125 142.632812 435.355469 L 149.289062 435.414062 C 151.507812 435.382812 153.726562 435.386719 155.945312 435.335938 C 158.164062 435.285156 160.386719 435.226562 162.605469 435.105469 C 162.699219 435.097656 162.777344 435.019531 162.785156 434.925781 C 162.789062 434.816406 162.710938 434.726562 162.605469 434.722656 Z M 242.167969 433.085938 C 239.492188 432.96875 236.816406 432.914062 234.144531 432.871094 L 226.121094 432.8125 L 218.09375 432.890625 C 217.203125 432.90625 216.308594 432.929688 215.414062 432.949219 C 215.421875 432.933594 215.4375 432.925781 215.4375 432.90625 C 215.507812 432.082031 215.347656 431.234375 215.023438 430.453125 C 214.707031 429.667969 214.199219 428.957031 213.566406 428.375 C 212.929688 427.804688 212.167969 427.367188 211.355469 427.128906 C 210.542969 426.882812 209.683594 426.804688 208.863281 426.957031 C 208.769531 426.976562 208.6875 427.058594 208.679688 427.160156 C 208.667969 427.285156 208.757812 427.398438 208.882812 427.410156 C 209.644531 427.496094 210.378906 427.667969 211.054688 427.960938 C 211.730469 428.253906 212.363281 428.632812 212.898438 429.117188 C 213.445312 429.597656 213.894531 430.183594 214.265625 430.820312 C 214.628906 431.464844 214.886719 432.175781 215.054688 432.929688 C 215.058594 432.941406 215.066406 432.945312 215.070312 432.957031 C 213.40625 432.996094 211.738281 433.046875 210.070312 433.121094 C 209.972656 433.125 209.894531 433.207031 209.890625 433.304688 C 209.882812 433.410156 209.964844 433.5 210.070312 433.503906 C 212.746094 433.625 215.421875 433.6875 218.09375 433.734375 L 226.121094 433.8125 L 234.144531 433.753906 C 236.816406 433.710938 239.492188 433.65625 242.167969 433.539062 C 242.285156 433.535156 242.378906 433.441406 242.382812 433.324219 C 242.390625 433.199219 242.292969 433.09375 242.167969 433.085938 Z M 231.667969 428.058594 C 231.425781 428.34375 231.25 428.675781 231.109375 429.015625 C 230.984375 429.363281 230.894531 429.730469 230.886719 430.101562 C 230.871094 430.46875 230.90625 430.839844 231.039062 431.1875 C 231.0625 431.242188 231.105469 431.285156 231.164062 431.304688 C 231.269531 431.34375 231.386719 431.285156 231.421875 431.179688 L 231.421875 431.175781 C 231.53125 430.847656 231.617188 430.542969 231.71875 430.246094 C 231.824219 429.953125 231.917969 429.664062 232.039062 429.382812 C 232.148438 429.097656 232.28125 428.824219 232.410156 428.542969 L 232.832031 427.675781 C 232.863281 427.609375 232.867188 427.53125 232.832031 427.460938 C 232.773438 427.34375 232.628906 427.296875 232.511719 427.355469 C 232.175781 427.523438 231.902344 427.777344 231.667969 428.058594 Z M 226.90625 430.25 C 227.011719 430.28125 227.121094 430.222656 227.15625 430.117188 C 227.292969 429.707031 227.425781 429.316406 227.589844 428.949219 C 227.761719 428.582031 227.933594 428.222656 228.144531 427.886719 C 228.347656 427.546875 228.585938 427.230469 228.832031 426.910156 C 229.082031 426.597656 229.367188 426.304688 229.664062 425.992188 L 229.667969 425.988281 C 229.722656 425.929688 229.746094 425.847656 229.722656 425.761719 C 229.6875 425.640625 229.558594 425.566406 229.433594 425.601562 C 228.976562 425.730469 228.566406 425.984375 228.203125 426.289062 C 227.835938 426.589844 227.535156 426.96875 227.289062 427.375 C 227.054688 427.789062 226.867188 428.234375 226.78125 428.699219 C 226.691406 429.164062 226.667969 429.644531 226.773438 430.105469 C 226.789062 430.167969 226.839844 430.226562 226.90625 430.25 Z M 227.789062 423.960938 C 227.792969 423.832031 227.691406 423.726562 227.5625 423.726562 C 226.875 423.714844 226.1875 423.882812 225.550781 424.160156 C 224.90625 424.429688 224.320312 424.839844 223.816406 425.335938 C 223.324219 425.835938 222.914062 426.417969 222.640625 427.0625 C 222.363281 427.699219 222.195312 428.382812 222.203125 429.066406 C 222.203125 429.144531 222.253906 429.21875 222.328125 429.246094 C 222.429688 429.285156 222.539062 429.230469 222.578125 429.132812 C 222.804688 428.53125 223.0625 427.96875 223.390625 427.449219 C 223.71875 426.9375 224.085938 426.457031 224.519531 426.042969 C 224.945312 425.621094 225.433594 425.265625 225.949219 424.945312 C 226.472656 424.632812 227.035156 424.390625 227.636719 424.171875 C 227.722656 424.140625 227.789062 424.058594 227.789062 423.960938 Z M 153.097656 429.300781 C 152.085938 428.929688 151.003906 428.773438 149.925781 428.714844 C 148.839844 428.703125 147.746094 428.847656 146.722656 429.191406 C 145.695312 429.53125 144.722656 430.023438 143.917969 430.769531 C 143.855469 430.828125 143.835938 430.921875 143.878906 431 C 143.933594 431.09375 144.046875 431.125 144.140625 431.074219 L 144.15625 431.0625 C 145.023438 430.578125 145.984375 430.222656 146.949219 430.003906 C 147.921875 429.792969 148.90625 429.683594 149.898438 429.714844 C 150.886719 429.765625 151.875 429.894531 152.84375 430.148438 C 153.820312 430.382812 154.761719 430.753906 155.730469 431.113281 L 155.742188 431.121094 C 155.84375 431.15625 155.957031 431.121094 156.015625 431.03125 C 156.082031 430.925781 156.050781 430.785156 155.945312 430.71875 C 155.5 430.433594 155.042969 430.164062 154.578125 429.90625 C 154.085938 429.707031 153.609375 429.453125 153.097656 429.300781 Z M 157.351562 428.394531 C 157.453125 428.429688 157.566406 428.390625 157.621094 428.296875 C 157.6875 428.191406 157.652344 428.050781 157.546875 427.988281 C 156.976562 427.644531 156.390625 427.308594 155.796875 426.996094 C 155.171875 426.75 154.570312 426.433594 153.917969 426.246094 C 152.636719 425.796875 151.277344 425.609375 149.917969 425.523438 C 148.550781 425.523438 147.179688 425.6875 145.878906 426.105469 C 144.582031 426.519531 143.351562 427.125 142.316406 428.039062 C 142.25 428.097656 142.230469 428.199219 142.28125 428.277344 C 142.332031 428.367188 142.449219 428.398438 142.539062 428.34375 L 142.558594 428.332031 C 143.652344 427.679688 144.875 427.210938 146.109375 426.914062 C 147.347656 426.625 148.617188 426.46875 149.890625 426.523438 C 151.160156 426.570312 152.429688 426.746094 153.667969 427.09375 C 154.300781 427.21875 154.894531 427.480469 155.511719 427.667969 C 156.121094 427.886719 156.710938 428.164062 157.328125 428.386719 Z M 154.558594 423.980469 C 153.945312 423.753906 153.347656 423.457031 152.710938 423.285156 C 151.449219 422.871094 150.121094 422.703125 148.792969 422.621094 C 147.464844 422.621094 146.125 422.769531 144.847656 423.15625 C 143.574219 423.539062 142.359375 424.097656 141.320312 424.960938 C 141.253906 425.019531 141.230469 425.117188 141.277344 425.199219 C 141.328125 425.292969 141.445312 425.324219 141.535156 425.273438 L 141.554688 425.265625 C 142.640625 424.664062 143.851562 424.238281 145.0625 423.972656 C 146.28125 423.707031 147.523438 423.566406 148.769531 423.617188 C 150.011719 423.664062 151.257812 423.820312 152.472656 424.140625 C 153.699219 424.417969 154.882812 424.871094 156.085938 425.316406 L 156.097656 425.320312 C 156.199219 425.359375 156.316406 425.316406 156.371094 425.21875 C 156.4375 425.113281 156.398438 424.972656 156.289062 424.910156 C 155.722656 424.589844 155.148438 424.273438 154.558594 423.980469 Z M 203.148438 172.109375 C 203.28125 172.601562 203.542969 173.054688 203.921875 173.355469 C 204.824219 174.074219 205.695312 174.828125 206.570312 175.558594 C 207.449219 176.289062 208.34375 176.992188 209.289062 177.613281 C 209.761719 177.925781 210.25 178.214844 210.753906 178.472656 C 211.246094 178.742188 211.773438 178.933594 212.179688 179.140625 L 212.195312 179.117188 C 212.261719 179.035156 212.320312 178.96875 212.390625 178.90625 L 212.691406 178.648438 L 213.292969 178.128906 L 214.488281 177.089844 C 215.28125 176.390625 216.0625 175.683594 216.824219 174.953125 C 217.191406 174.597656 217.605469 174.207031 217.910156 173.855469 C 218.195312 173.488281 218.378906 173.03125 218.449219 172.5625 C 218.519531 172.109375 218.457031 171.5625 218.457031 171.035156 L 218.425781 169.445312 L 218.195312 157.191406 L 210.648438 157.234375 L 203.132812 157.21875 L 203.050781 170.503906 C 203.050781 171.097656 203.003906 171.628906 203.148438 172.109375 Z M 202.273438 170.503906 L 202.1875 156.742188 C 202.1875 156.480469 202.394531 156.269531 202.65625 156.265625 L 202.660156 156.265625 L 210.648438 156.246094 L 218.632812 156.292969 C 218.878906 156.292969 219.074219 156.492188 219.078125 156.734375 L 219.164062 169.4375 L 219.171875 171.027344 C 219.15625 171.554688 219.210938 172.074219 219.113281 172.671875 C 219.015625 173.242188 218.78125 173.796875 218.40625 174.257812 C 218.003906 174.695312 217.632812 175.019531 217.234375 175.390625 C 216.449219 176.113281 215.644531 176.804688 214.832031 177.488281 L 213.609375 178.503906 L 212.996094 179.007812 L 212.691406 179.261719 C 212.570312 179.359375 212.4375 179.453125 212.3125 179.539062 L 212.273438 179.527344 C 211.605469 179.339844 211.078125 179.113281 210.558594 178.863281 C 210.03125 178.617188 209.519531 178.339844 209.023438 178.035156 C 208.03125 177.433594 207.097656 176.742188 206.1875 176.035156 L 203.484375 173.914062 C 202.957031 173.507812 202.609375 172.921875 202.433594 172.3125 C 202.34375 172.007812 202.296875 171.691406 202.285156 171.375 Z M 181.664062 147.503906 C 180.914062 147.640625 180.183594 147.828125 179.449219 148.019531 C 178.71875 148.199219 177.996094 148.417969 177.273438 148.628906 C 176.554688 148.851562 175.835938 149.0625 175.121094 149.3125 C 174.40625 149.554688 173.691406 149.796875 172.984375 150.09375 C 172.910156 150.125 172.859375 150.203125 172.867188 150.285156 C 172.875 150.394531 172.96875 150.472656 173.074219 150.464844 C 173.839844 150.40625 174.59375 150.277344 175.339844 150.128906 C 176.089844 149.984375 176.824219 149.789062 177.558594 149.585938 C 178.285156 149.367188 179.011719 149.140625 179.722656 148.859375 C 180.433594 148.585938 181.136719 148.292969 181.8125 147.933594 C 181.898438 147.886719 181.949219 147.789062 181.933594 147.6875 C 181.910156 147.566406 181.789062 147.480469 181.664062 147.503906 Z M 175.453125 134.109375 L 206.925781 127.363281 C 207.039062 127.339844 207.117188 127.230469 207.101562 127.113281 C 207.085938 126.988281 206.96875 126.902344 206.847656 126.917969 C 204.183594 127.273438 201.53125 127.714844 198.886719 128.1875 C 196.242188 128.664062 193.609375 129.210938 190.980469 129.757812 C 188.359375 130.351562 185.738281 130.9375 183.132812 131.601562 C 180.527344 132.265625 177.933594 132.960938 175.359375 133.738281 C 175.265625 133.769531 175.207031 133.867188 175.226562 133.964844 C 175.25 134.066406 175.351562 134.132812 175.453125 134.109375 Z M 180.261719 116.414062 C 181.273438 113 181.746094 109.34375 181.179688 105.785156 C 180.632812 102.230469 179.183594 98.867188 177.136719 95.976562 C 177.074219 95.894531 176.964844 95.871094 176.878906 95.921875 C 176.789062 95.980469 176.761719 96.097656 176.816406 96.1875 C 177.738281 97.671875 178.515625 99.238281 179.097656 100.875 C 179.703125 102.5 180.125 104.191406 180.34375 105.902344 C 180.789062 109.328125 180.339844 112.820312 179.304688 116.128906 C 178.324219 119.457031 176.773438 122.601562 175.125 125.691406 L 172.59375 130.316406 C 171.898438 131.617188 171.28125 132.960938 170.726562 134.328125 C 170.019531 134.136719 169.273438 134.105469 168.574219 134.257812 C 167.8125 134.417969 167.085938 134.761719 166.539062 135.292969 C 166.484375 135.351562 166.464844 135.441406 166.5 135.515625 C 166.542969 135.613281 166.660156 135.652344 166.757812 135.609375 C 167.390625 135.324219 168.042969 135.144531 168.695312 135.097656 C 168.949219 135.085938 169.199219 135.097656 169.449219 135.117188 C 168.632812 135.863281 168.128906 136.925781 168.179688 137.996094 C 168.183594 138.089844 168.246094 138.175781 168.34375 138.203125 C 168.464844 138.238281 168.59375 138.167969 168.628906 138.046875 L 168.628906 138.042969 C 168.984375 136.789062 169.851562 135.773438 170.953125 135.3125 L 170.960938 135.308594 C 171.089844 135.253906 171.195312 135.144531 171.238281 135 C 171.289062 134.84375 171.25 134.691406 171.164062 134.566406 C 172.527344 131.652344 174.316406 128.964844 175.902344 126.117188 C 177.636719 123.046875 179.214844 119.835938 180.261719 116.414062 Z M 243.011719 123.25 C 243.027344 123.054688 242.917969 122.863281 242.730469 122.78125 C 242.488281 122.675781 242.210938 122.785156 242.105469 123.027344 L 242.101562 123.039062 C 241.363281 124.738281 240.972656 126.574219 240.886719 128.417969 C 240.835938 129.339844 240.90625 130.261719 241.023438 131.171875 C 241.148438 132.078125 241.371094 132.972656 241.679688 133.832031 C 241.710938 133.917969 241.800781 133.972656 241.894531 133.953125 C 241.996094 133.9375 242.066406 133.835938 242.046875 133.730469 C 241.890625 132.855469 241.796875 131.976562 241.746094 131.101562 C 241.691406 130.222656 241.738281 129.34375 241.796875 128.476562 C 241.871094 127.601562 242.011719 126.734375 242.210938 125.882812 C 242.382812 126.988281 242.691406 128.070312 243.183594 129.066406 C 243.230469 129.167969 243.347656 129.21875 243.453125 129.183594 C 243.574219 129.148438 243.640625 129.019531 243.601562 128.898438 C 243.03125 127.058594 242.875 125.140625 243.011719 123.25 Z M 269.941406 83.058594 L 269.9375 83.058594 C 269.578125 83.277344 269.253906 83.503906 268.910156 83.699219 C 268.570312 83.890625 268.234375 84.085938 267.882812 84.25 C 267.535156 84.425781 267.175781 84.566406 266.8125 84.71875 C 266.441406 84.863281 266.0625 84.980469 265.660156 85.121094 C 265.601562 85.144531 265.546875 85.195312 265.53125 85.265625 C 265.507812 85.371094 265.574219 85.476562 265.679688 85.503906 C 266.117188 85.605469 266.570312 85.597656 267.019531 85.535156 C 267.464844 85.480469 267.898438 85.335938 268.3125 85.152344 C 268.71875 84.957031 269.105469 84.71875 269.4375 84.410156 C 269.773438 84.109375 270.070312 83.765625 270.273438 83.363281 C 270.308594 83.292969 270.308594 83.203125 270.265625 83.132812 C 270.195312 83.023438 270.050781 82.988281 269.941406 83.058594 Z M 290.046875 84.503906 C 289.085938 84.265625 288.109375 84.132812 287.125 84.050781 C 286.144531 83.960938 285.152344 83.957031 284.167969 83.996094 C 283.179688 84.050781 282.195312 84.144531 281.226562 84.324219 C 280.253906 84.5 279.292969 84.726562 278.363281 85.054688 C 278.265625 85.089844 278.199219 85.1875 278.210938 85.292969 C 278.222656 85.417969 278.335938 85.507812 278.460938 85.496094 L 281.34375 85.203125 C 282.304688 85.121094 283.257812 85.039062 284.21875 84.996094 C 285.175781 84.9375 286.132812 84.917969 287.097656 84.894531 L 290 84.882812 C 290.085938 84.882812 290.164062 84.824219 290.1875 84.734375 C 290.210938 84.632812 290.148438 84.527344 290.046875 84.503906 Z M 287.542969 87.316406 C 286.203125 86.832031 284.71875 86.914062 283.363281 87.164062 C 281.996094 87.40625 280.695312 87.816406 279.394531 87.996094 C 278.742188 88.105469 278.105469 88.171875 277.460938 88.148438 C 276.808594 88.128906 276.144531 88.03125 275.460938 87.988281 C 274.777344 87.933594 274.070312 87.890625 273.359375 87.941406 C 272.648438 88.015625 271.917969 88.195312 271.300781 88.574219 C 271.207031 88.628906 271.164062 88.75 271.207031 88.851562 C 271.253906 88.96875 271.386719 89.023438 271.503906 88.976562 C 272.714844 88.507812 274.03125 88.667969 275.355469 88.863281 C 276.671875 89.078125 278.152344 89.238281 279.550781 88.980469 C 280.941406 88.730469 282.246094 88.320312 283.539062 87.988281 C 284.828125 87.65625 286.132812 87.46875 287.441406 87.6875 C 287.53125 87.703125 287.625 87.652344 287.65625 87.5625 C 287.695312 87.464844 287.644531 87.355469 287.542969 87.316406 Z M 217.691406 127.609375 C 218.589844 127.277344 219.511719 127.050781 220.4375 126.976562 C 221.367188 126.910156 222.296875 126.960938 223.195312 127.171875 C 224.09375 127.367188 224.953125 127.730469 225.761719 128.195312 C 226.566406 128.671875 227.300781 129.277344 227.960938 129.972656 C 228.019531 130.035156 228.117188 130.054688 228.195312 130.011719 C 228.289062 129.960938 228.320312 129.84375 228.269531 129.75 C 227.773438 128.863281 227.058594 128.101562 226.226562 127.492188 C 225.398438 126.878906 224.433594 126.441406 223.421875 126.195312 C 222.40625 125.964844 221.347656 125.921875 220.328125 126.101562 C 219.308594 126.273438 218.324219 126.636719 217.484375 127.210938 C 217.398438 127.269531 217.359375 127.378906 217.398438 127.480469 C 217.445312 127.597656 217.574219 127.65625 217.691406 127.609375 Z M 215.949219 55.628906 C 215.628906 55.585938 215.328125 55.585938 215.027344 55.570312 L 214.144531 55.542969 L 213.257812 55.527344 C 212.960938 55.527344 212.65625 55.515625 212.328125 55.535156 C 212.273438 55.539062 212.214844 55.566406 212.179688 55.613281 C 212.105469 55.703125 212.121094 55.828125 212.210938 55.898438 C 212.484375 56.117188 212.792969 56.253906 213.113281 56.359375 C 213.4375 56.472656 213.773438 56.519531 214.109375 56.539062 C 214.449219 56.550781 214.789062 56.535156 215.117188 56.449219 C 215.445312 56.371094 215.769531 56.261719 216.058594 56.070312 C 216.113281 56.03125 216.15625 55.972656 216.164062 55.902344 C 216.183594 55.769531 216.089844 55.648438 215.957031 55.632812 Z M 211.398438 53.691406 C 210.539062 53.5625 209.691406 53.328125 208.855469 53.019531 C 208.761719 52.984375 208.648438 53.015625 208.589844 53.105469 C 208.515625 53.207031 208.542969 53.347656 208.644531 53.421875 C 209.414062 53.964844 210.304688 54.328125 211.226562 54.558594 C 212.148438 54.789062 213.113281 54.855469 214.0625 54.789062 C 215.011719 54.710938 215.953125 54.503906 216.828125 54.132812 C 217.703125 53.773438 218.523438 53.277344 219.203125 52.628906 C 219.265625 52.570312 219.285156 52.476562 219.242188 52.398438 C 219.191406 52.304688 219.074219 52.269531 218.980469 52.320312 C 218.191406 52.746094 217.382812 53.09375 216.546875 53.339844 C 215.707031 53.574219 214.855469 53.738281 213.988281 53.792969 C 213.128906 53.855469 212.257812 53.8125 211.398438 53.691406 Z M 215.144531 50.835938 C 215.058594 50.890625 215.019531 51 215.058594 51.101562 C 215.097656 51.21875 215.230469 51.28125 215.347656 51.238281 C 216.246094 50.917969 217.167969 50.523438 217.953125 49.816406 C 218.34375 49.46875 218.671875 49.03125 218.898438 48.527344 C 219.128906 48.027344 219.210938 47.429688 219.152344 46.894531 C 219.011719 45.8125 218.621094 44.945312 218.210938 44.058594 C 217.785156 43.179688 217.28125 42.339844 216.671875 41.589844 C 216.617188 41.523438 216.523438 41.496094 216.441406 41.535156 C 216.34375 41.578125 216.300781 41.695312 216.347656 41.789062 C 216.738281 42.652344 217.117188 43.511719 217.433594 44.386719 C 217.722656 45.257812 218.078125 46.171875 218.160156 46.988281 C 218.261719 47.792969 217.90625 48.542969 217.328125 49.1875 C 216.75 49.828125 215.941406 50.304688 215.144531 50.835938 Z M 209.558594 35.5625 C 209.085938 35.402344 208.574219 35.375 208.074219 35.425781 C 207.570312 35.476562 207.085938 35.632812 206.628906 35.851562 C 206.183594 36.082031 205.761719 36.375 205.421875 36.746094 C 205.078125 37.109375 204.792969 37.53125 204.632812 38.003906 C 204.613281 38.070312 204.628906 38.148438 204.675781 38.199219 C 204.75 38.28125 204.875 38.285156 204.953125 38.210938 C 205.296875 37.90625 205.625 37.625 205.976562 37.382812 C 206.332031 37.148438 206.6875 36.925781 207.070312 36.75 C 207.445312 36.5625 207.839844 36.425781 208.242188 36.296875 C 208.648438 36.171875 209.070312 36.09375 209.515625 36.015625 L 209.523438 36.015625 C 209.601562 36 209.671875 35.941406 209.703125 35.859375 C 209.742188 35.738281 209.679688 35.605469 209.558594 35.5625 Z M 221.621094 38.453125 C 221.683594 38.503906 221.769531 38.519531 221.847656 38.488281 C 221.96875 38.441406 222.03125 38.304688 221.984375 38.183594 C 221.820312 37.769531 221.601562 37.386719 221.339844 37.015625 C 221.078125 36.640625 220.746094 36.304688 220.355469 36.019531 C 219.953125 35.746094 219.496094 35.535156 219.003906 35.472656 C 218.515625 35.402344 217.988281 35.460938 217.570312 35.71875 C 217.515625 35.753906 217.480469 35.816406 217.480469 35.886719 C 217.480469 35.996094 217.566406 36.085938 217.675781 36.085938 L 217.6875 36.085938 C 218.492188 36.085938 219.167969 36.394531 219.773438 36.832031 C 220.082031 37.050781 220.367188 37.320312 220.671875 37.597656 C 220.972656 37.875 221.269531 38.179688 221.621094 38.453125 Z M 218.179688 42.179688 C 218.179688 42.824219 218.703125 43.347656 219.347656 43.347656 C 219.992188 43.347656 220.515625 42.824219 220.515625 42.179688 C 220.515625 41.535156 219.992188 41.011719 219.347656 41.011719 C 218.703125 41.011719 218.179688 41.535156 218.179688 42.179688 Z M 209.613281 42.179688 C 209.613281 41.535156 209.089844 41.011719 208.445312 41.011719 C 207.800781 41.011719 207.277344 41.535156 207.277344 42.179688 C 207.277344 42.824219 207.800781 43.347656 208.445312 43.347656 C 209.089844 43.347656 209.613281 42.824219 209.613281 42.179688 Z M 269.105469 57.382812 C 270.453125 58.695312 271.808594 60.003906 273.207031 61.269531 C 272.5 63.558594 272.777344 66.148438 274.03125 68.191406 C 273.761719 68.164062 273.484375 68.121094 273.210938 68.085938 L 271.488281 67.746094 C 271.398438 67.730469 271.300781 67.765625 271.246094 67.847656 C 271.179688 67.957031 271.210938 68.097656 271.320312 68.164062 C 271.578125 68.332031 271.855469 68.460938 272.128906 68.609375 C 272.414062 68.734375 272.710938 68.832031 273 68.945312 C 273.597656 69.132812 274.230469 69.246094 274.882812 69.238281 C 275.527344 69.234375 276.207031 69.109375 276.796875 68.777344 C 277.386719 68.449219 277.894531 67.964844 278.113281 67.300781 C 278.132812 67.230469 278.117188 67.152344 278.058594 67.101562 C 277.980469 67.03125 277.859375 67.035156 277.789062 67.113281 L 277.761719 67.144531 C 277.410156 67.535156 276.9375 67.839844 276.449219 68.011719 C 276.007812 68.15625 275.535156 68.222656 275.054688 68.226562 C 274.308594 65.429688 274.699219 62.414062 275.996094 59.816406 C 275.566406 59.371094 274.746094 59.152344 274.136719 59.257812 C 273.847656 59.699219 273.625 60.171875 273.429688 60.660156 C 272.308594 59.25 271.113281 57.90625 269.835938 56.640625 C 268.367188 55.210938 266.847656 53.765625 264.921875 52.882812 L 264.816406 53.03125 C 265.519531 53.789062 266.207031 54.535156 266.929688 55.25 Z M 232.242188 118.128906 C 232.296875 118.164062 238.710938 122.449219 239.1875 123.875 C 239.664062 125.300781 238.429688 128.886719 238.421875 128.910156 C 238.710938 128.753906 238.953125 128.59375 239.105469 128.433594 C 240.023438 127.460938 240.554688 125.417969 240.488281 124.59375 C 240.421875 123.769531 234.503906 118.304688 233.152344 118.125 C 232.875 118.089844 232.566406 118.097656 232.242188 118.128906 Z M 237.34375 129.410156 C 237.734375 129.246094 238.097656 129.085938 238.402344 128.921875 Z M 237.339844 129.414062 C 237.339844 129.410156 238.386719 125.261719 237.988281 124.214844 C 237.589844 123.164062 231.019531 118.355469 230.988281 118.335938 C 229.96875 118.566406 228.816406 118.921875 227.609375 119.230469 C 227.109375 119.355469 225.914062 120.363281 224.382812 121.824219 C 224.28125 121.78125 224.1875 121.722656 224.082031 121.683594 C 222.980469 121.292969 221.789062 121.355469 220.746094 121.636719 C 219.6875 121.914062 218.71875 122.359375 217.804688 122.867188 C 217.710938 122.921875 217.664062 123.027344 217.695312 123.132812 C 217.730469 123.253906 217.855469 123.320312 217.976562 123.285156 C 218.980469 122.996094 219.957031 122.671875 220.933594 122.503906 C 221.90625 122.335938 222.882812 122.3125 223.75 122.628906 C 224.628906 122.917969 225.382812 123.558594 226.140625 124.242188 C 226.898438 124.929688 227.667969 125.703125 228.632812 126.203125 C 228.710938 126.242188 228.808594 126.226562 228.867188 126.15625 C 228.9375 126.078125 228.925781 125.957031 228.84375 125.886719 C 228.636719 125.710938 228.457031 125.503906 228.265625 125.304688 C 229.019531 125.9375 229.621094 126.476562 229.914062 126.8125 C 231.136719 128.214844 231.085938 129.3125 230.859375 130.113281 C 230.636719 130.914062 228.335938 130.113281 228.335938 130.113281 C 228.335938 130.113281 228.148438 131.929688 226.554688 133.238281 C 226.015625 132.679688 225.433594 132.160156 224.777344 131.699219 C 224.070312 131.199219 223.261719 130.785156 222.367188 130.582031 C 221.46875 130.375 220.519531 130.449219 219.699219 130.640625 C 218.867188 130.816406 218.089844 131.03125 217.28125 131.109375 C 217.199219 131.117188 217.125 131.179688 217.105469 131.261719 C 217.085938 131.367188 217.152344 131.46875 217.257812 131.488281 C 218.128906 131.660156 219.011719 131.546875 219.824219 131.476562 C 220.652344 131.402344 221.40625 131.367188 222.144531 131.554688 C 222.886719 131.71875 223.601562 132.066406 224.308594 132.449219 C 224.914062 132.785156 225.507812 133.179688 226.125 133.554688 C 225.851562 133.734375 225.542969 133.902344 225.195312 134.046875 C 222.335938 135.214844 219.238281 134.214844 217.539062 134.511719 C 216.433594 134.707031 214.359375 134.304688 212.578125 134.21875 C 211.199219 135.738281 210.304688 136.738281 210.304688 136.738281 L 214.011719 141.789062 C 216.210938 141.09375 232.035156 132.683594 233.144531 131.488281 C 233.875 130.699219 235.824219 130.046875 237.339844 129.414062 Z M 222.71875 418.722656 L 207.335938 418.722656 C 207.335938 418.722656 189.484375 336.953125 195.117188 308.335938 C 197.8125 294.644531 197.464844 282.304688 196.132812 269.707031 L 222.757812 269.707031 L 222.71875 418.722656" fill="#393a3f"/></g></g></svg>